<svg xmlns="http://www.w3.org/2000/svg" xml:space="preserve" style="enable-background:new 0 0 100.5 100.5" viewBox="0 0 100.5 100.5">
  <path d="m82.256 75.561-8.716-2.145 8.757-13.081a1.5 1.5 0 0 0-2.492-1.669l-9.948 14.86a1.5 1.5 0 0 0 .888 2.291l8.828 2.172-8.714 14.629a1.5 1.5 0 0 0 2.578 1.535l9.75-16.369a1.501 1.501 0 0 0-.931-2.223" fill="#FF5A30" stroke-width="2"/>

  <path d="M50 5.114c-24.892 0-45.143 20.25-45.143 45.141 0 17.687 9.913 37.828 28.941 42.118l2.452.412c.042.007.084.012.127.016 1.327.108 2.543.164 3.659.164 4.354 0 7.184-.843 9.153-2.659 2.125-1.958 3.115-4.97 3.115-9.479v-9.511c10.368-1.153 18.459-9.963 18.459-20.636V37.252a1.5 1.5 0 0 0-1.495-1.5l-7.074-.024V23.469a1.5 1.5 0 1 0-3 0v12.249L40.8 35.656V23.47a1.5 1.5 0 1 0-3 0v12.176l-7.067-.024c-.395-.013-.781.156-1.063.438s-.441.664-.441 1.062v13.559c0 11.22 8.947 20.368 20.076 20.737v9.41c0 3.612-.683 5.923-2.147 7.273-1.768 1.627-4.999 2.155-10.474 1.716l-2.307-.386C16.966 85.504 7.856 66.751 7.856 50.256c0-23.236 18.905-42.141 42.143-42.141s42.144 18.904 42.144 42.141a1.5 1.5 0 1 0 3 0C95.143 25.364 74.892 5.114 50 5.114zM32.229 50.679V38.625l6.923.023c.05.005.098.015.15.015.048 0 .093-.01.14-.014l28.323.096v11.933c0 9.799-7.971 17.772-17.768 17.772s-17.768-7.972-17.768-17.771z" fill="#FF5A30" stroke-width="2"/>
</svg>
